<svg width="40" height="40" viewBox="0 0 40 40" fill="none" xmlns="http://www.w3.org/2000/svg">
<path d="M31.5833 31.4999C32.6 31.4999 33.575 31.9038 34.2939 32.6227C35.0128 33.3416 35.4166 34.3166 35.4166 35.3333C35.4166 36.3499 35.0128 37.3249 34.2939 38.0438C33.575 38.7627 32.6 39.1666 31.5833 39.1666C29.4558 39.1666 27.75 37.4416 27.75 35.3333C27.75 33.2058 29.4558 31.4999 31.5833 31.4999ZM0.916626 0.833252H7.18413L8.98579 4.66659H37.3333C37.8416 4.66659 38.3291 4.86852 38.6886 5.22796C39.048 5.58741 39.25 6.07492 39.25 6.58325C39.25 6.90909 39.1541 7.23492 39.02 7.54159L32.1583 19.9424C31.5066 21.1116 30.2416 21.9166 28.8041 21.9166H14.525L12.8 25.0408L12.7425 25.2708C12.7425 25.3978 12.7929 25.5197 12.8828 25.6096C12.9727 25.6994 13.0945 25.7499 13.2216 25.7499H35.4166V29.5833H12.4166C10.2891 29.5833 8.58329 27.8583 8.58329 25.7499C8.58329 25.0791 8.75579 24.4466 9.04329 23.9099L11.65 19.2141L4.74996 4.66659H0.916626V0.833252ZM12.4166 31.4999C13.4333 31.4999 14.4083 31.9038 15.1272 32.6227C15.8461 33.3416 16.25 34.3166 16.25 35.3333C16.25 36.3499 15.8461 37.3249 15.1272 38.0438C14.4083 38.7627 13.4333 39.1666 12.4166 39.1666C10.2891 39.1666 8.58329 37.4416 8.58329 35.3333C8.58329 33.2058 10.2891 31.4999 12.4166 31.4999ZM29.6666 18.0833L34.995 8.49992H10.7683L15.2916 18.0833H29.6666Z" fill="black"/>
</svg>
