<svg width="40" height="40" viewBox="0 0 40 40" fill="none" xmlns="http://www.w3.org/2000/svg">
<path d="M31.5834 31.4999C32.6001 31.4999 33.5751 31.9038 34.294 32.6227C35.0129 33.3416 35.4167 34.3166 35.4167 35.3333C35.4167 36.3499 35.0129 37.3249 34.294 38.0438C33.5751 38.7627 32.6001 39.1666 31.5834 39.1666C29.4559 39.1666 27.7501 37.4416 27.7501 35.3333C27.7501 33.2058 29.4559 31.4999 31.5834 31.4999ZM0.916748 0.833252H7.18425L8.98591 4.66659H37.3334C37.8417 4.66659 38.3293 4.86852 38.6887 5.22796C39.0481 5.58741 39.2501 6.07492 39.2501 6.58325C39.2501 6.90909 39.1542 7.23492 39.0201 7.54159L32.1584 19.9424C31.5067 21.1116 30.2417 21.9166 28.8042 21.9166H14.5251L12.8001 25.0408L12.7426 25.2708C12.7426 25.3978 12.7931 25.5197 12.8829 25.6096C12.9728 25.6994 13.0947 25.7499 13.2217 25.7499H35.4167V29.5833H12.4167C10.2892 29.5833 8.58341 27.8583 8.58341 25.7499C8.58341 25.0791 8.75591 24.4466 9.04341 23.9099L11.6501 19.2141L4.75008 4.66659H0.916748V0.833252ZM12.4167 31.4999C13.4334 31.4999 14.4084 31.9038 15.1273 32.6227C15.8462 33.3416 16.2501 34.3166 16.2501 35.3333C16.2501 36.3499 15.8462 37.3249 15.1273 38.0438C14.4084 38.7627 13.4334 39.1666 12.4167 39.1666C10.2892 39.1666 8.58341 37.4416 8.58341 35.3333C8.58341 33.2058 10.2892 31.4999 12.4167 31.4999ZM29.6667 18.0833L34.9951 8.49992H10.7684L15.2917 18.0833H29.6667Z" fill="black"/>
</svg>
