<svg width="39" height="36" viewBox="0 0 39 36" fill="none" xmlns="http://www.w3.org/2000/svg">
<path d="M19.3583 29.8042L19.1667 29.9958L18.9558 29.8042C9.85167 21.5433 3.83333 16.0808 3.83333 10.5417C3.83333 6.70833 6.70833 3.83333 10.5417 3.83333C13.4933 3.83333 16.3683 5.75 17.3842 8.35667H20.9492C21.965 5.75 24.84 3.83333 27.7917 3.83333C31.625 3.83333 34.5 6.70833 34.5 10.5417C34.5 16.0808 28.4817 21.5433 19.3583 29.8042ZM27.7917 0C24.4567 0 21.2558 1.5525 19.1667 3.98667C17.0775 1.5525 13.8767 0 10.5417 0C4.63833 0 0 4.61917 0 10.5417C0 17.7675 6.51667 23.69 16.3875 32.6408L19.1667 35.1708L21.9458 32.6408C31.8167 23.69 38.3333 17.7675 38.3333 10.5417C38.3333 4.61917 33.695 0 27.7917 0Z" fill="black"/>
</svg>
