<svg width="46" height="15" viewBox="0 0 46 15" fill="none" xmlns="http://www.w3.org/2000/svg">
<path d="M5.33953 3.25063C5.63543 3.25063 5.90174 3.30853 6.13848 3.42432C6.37518 3.54011 6.49357 3.71379 6.49357 3.94537C6.49357 4.14799 6.43437 4.31445 6.31602 4.44471C6.19764 4.56049 6.05709 4.6184 5.89436 4.6184C5.82035 4.6184 5.67243 4.5822 5.4505 4.50984C5.24334 4.43749 5.0436 4.40129 4.85129 4.40129C4.30385 4.40129 3.75642 4.61117 3.209 5.0309C2.67637 5.43617 2.23251 5.96445 1.87742 6.61577C1.53712 7.26708 1.36698 7.92562 1.36698 8.59142V13.9539C1.36698 14.1421 1.3004 14.3013 1.16724 14.4316C1.04888 14.5473 0.893528 14.6052 0.701191 14.6052C0.508851 14.6052 0.346102 14.5473 0.212944 14.4316C0.0945818 14.3013 0.0354004 14.1421 0.0354004 13.9539V4.22761C0.0354004 4.03944 0.0945818 3.88747 0.212944 3.77169C0.346102 3.64142 0.508851 3.57629 0.701191 3.57629C0.893528 3.57629 1.04888 3.64142 1.16724 3.77169C1.3004 3.88747 1.36698 4.03944 1.36698 4.22761V6.13813C1.70727 5.31313 2.21771 4.63288 2.8983 4.09734C3.59368 3.54735 4.40743 3.26511 5.33953 3.25063ZM9.8617 13.9539C9.8617 14.1421 9.79512 14.3013 9.66196 14.4316C9.54361 14.5473 9.38826 14.6052 9.19591 14.6052C9.00355 14.6052 8.84082 14.5473 8.70766 14.4316C8.58931 14.3013 8.53012 14.1421 8.53012 13.9539V3.96708C8.53012 3.77892 8.58931 3.62695 8.70766 3.51116C8.84082 3.3809 9.00355 3.31577 9.19591 3.31577C9.38826 3.31577 9.54361 3.3809 9.66196 3.51116C9.79512 3.62695 9.8617 3.77892 9.8617 3.96708V13.9539ZM9.19591 1.86116C8.90001 1.86116 8.67066 1.79603 8.50793 1.66577C8.34519 1.52103 8.2638 1.3184 8.2638 1.05787V0.840765C8.2638 0.580239 8.34519 0.384844 8.50793 0.254581C8.68547 0.109844 8.92221 0.0374756 9.2181 0.0374756C9.80993 0.0374756 10.1058 0.305239 10.1058 0.840765V1.05787C10.1058 1.3184 10.0244 1.52103 9.8617 1.66577C9.71373 1.79603 9.4918 1.86116 9.19591 1.86116ZM18.2255 3.25063C18.9209 3.25063 19.5645 3.33024 20.1563 3.48945C20.7629 3.63418 21.2438 3.83682 21.5988 4.09734C21.9687 4.35787 22.1537 4.64011 22.1537 4.94405C22.1537 5.10325 22.0945 5.248 21.9761 5.37827C21.8725 5.50853 21.7394 5.57366 21.5766 5.57366C21.4287 5.57366 21.3029 5.54473 21.1994 5.48682C21.1106 5.42891 21.007 5.34207 20.8887 5.22629C20.6963 5.03812 20.5114 4.90063 20.3338 4.81379C20.1119 4.71246 19.816 4.63288 19.4461 4.57498C19.091 4.50262 18.7063 4.46642 18.2921 4.46642C17.4783 4.46642 16.7311 4.66904 16.0506 5.07432C15.3848 5.47959 14.8596 6.02958 14.4749 6.72432C14.0902 7.41906 13.8979 8.18615 13.8979 9.02563C13.8979 9.89406 14.0828 10.6756 14.4527 11.3704C14.8226 12.0651 15.333 12.6151 15.984 13.0204C16.6498 13.4112 17.4044 13.6066 18.2477 13.6066C18.7803 13.6066 19.202 13.5631 19.5127 13.4763C19.8382 13.3895 20.1563 13.2664 20.467 13.1072C20.5705 13.0493 20.7481 12.919 20.9996 12.7164C21.118 12.6151 21.2216 12.5427 21.3103 12.4993C21.3991 12.4414 21.4953 12.4125 21.5988 12.4125C21.7764 12.4125 21.9169 12.4704 22.0205 12.5862C22.124 12.6875 22.1759 12.825 22.1759 12.9987C22.1759 13.2447 21.9983 13.5125 21.6432 13.802C21.2881 14.077 20.7999 14.3158 20.1785 14.5184C19.5571 14.721 18.8691 14.8223 18.1145 14.8223C17.0345 14.8223 16.0728 14.5763 15.2295 14.0842C14.3861 13.5776 13.7277 12.8829 13.2543 12C12.7956 11.1171 12.5663 10.1256 12.5663 9.02563C12.5663 7.96904 12.803 7.00656 13.2765 6.13813C13.7499 5.25523 14.4157 4.55327 15.2738 4.03221C16.1319 3.51116 17.1159 3.25063 18.2255 3.25063ZM29.6254 3.25063C30.3208 3.25063 30.9644 3.33024 31.5562 3.48945C32.1628 3.63418 32.6436 3.83682 32.9987 4.09734C33.3686 4.35787 33.5536 4.64011 33.5536 4.94405C33.5536 5.10325 33.4944 5.248 33.376 5.37827C33.2725 5.50853 33.1393 5.57366 32.9765 5.57366C32.8286 5.57366 32.7028 5.54473 32.5993 5.48682C32.5105 5.42891 32.4069 5.34207 32.2886 5.22629C32.0962 5.03812 31.9113 4.90063 31.7337 4.81379C31.5118 4.71246 31.2159 4.63288 30.846 4.57498C30.4909 4.50262 30.1063 4.46642 29.692 4.46642C28.8783 4.46642 28.1311 4.66904 27.4505 5.07432C26.7847 5.47959 26.2595 6.02958 25.8748 6.72432C25.4901 7.41906 25.2978 8.18615 25.2978 9.02563C25.2978 9.89406 25.4827 10.6756 25.8526 11.3704C26.2225 12.0651 26.7329 12.6151 27.3839 13.0204C28.0497 13.4112 28.8043 13.6066 29.6476 13.6066C30.1802 13.6066 30.6019 13.5631 30.9126 13.4763C31.2381 13.3895 31.5562 13.2664 31.8669 13.1072C31.9705 13.0493 32.148 12.919 32.3995 12.7164C32.5179 12.6151 32.6214 12.5427 32.7102 12.4993C32.799 12.4414 32.8952 12.4125 32.9987 12.4125C33.1763 12.4125 33.3169 12.4704 33.4204 12.5862C33.524 12.6875 33.5757 12.825 33.5757 12.9987C33.5757 13.2447 33.3982 13.5125 33.0431 13.802C32.688 14.077 32.1998 14.3158 31.5784 14.5184C30.957 14.721 30.269 14.8223 29.5144 14.8223C28.4344 14.8223 27.4727 14.5763 26.6293 14.0842C25.786 13.5776 25.1276 12.8829 24.6542 12C24.1955 11.1171 23.9662 10.1256 23.9662 9.02563C23.9662 7.96904 24.2029 7.00656 24.6764 6.13813C25.1498 5.25523 25.8156 4.55327 26.6737 4.03221C27.5319 3.51116 28.5157 3.25063 29.6254 3.25063ZM45.3306 3.51116C45.5231 3.51116 45.6784 3.57629 45.7967 3.70655C45.9298 3.83682 45.9964 3.99602 45.9964 4.18419V13.9539C45.9964 14.1421 45.9298 14.3013 45.7967 14.4316C45.6784 14.5473 45.5231 14.6052 45.3306 14.6052C45.1385 14.6052 44.9755 14.5473 44.8424 14.4316C44.7241 14.3013 44.6648 14.1421 44.6648 13.9539V12.4993C44.2952 13.1506 43.7404 13.7006 43.0003 14.1493C42.2607 14.598 41.4545 14.8223 40.5813 14.8223C39.5902 14.8223 38.6951 14.569 37.8961 14.0625C37.112 13.5559 36.4906 12.8612 36.0319 11.9783C35.588 11.0954 35.3661 10.1039 35.3661 9.00392C35.3661 7.90391 35.5954 6.91971 36.0541 6.05129C36.5128 5.16838 37.1342 4.48091 37.9183 3.98879C38.7173 3.49668 39.5976 3.25063 40.5591 3.25063C41.4468 3.25063 42.2607 3.4605 43.0003 3.88024C43.7404 4.29996 44.2952 4.84999 44.6648 5.53024V4.18419C44.6648 3.99602 44.7241 3.83682 44.8424 3.70655C44.9755 3.57629 45.1385 3.51116 45.3306 3.51116ZM40.7145 13.6066C41.484 13.6066 42.1719 13.4112 42.7784 13.0204C43.3998 12.6151 43.8808 12.0651 44.221 11.3704C44.576 10.6611 44.7536 9.87234 44.7536 9.00392C44.7536 8.16444 44.576 7.39735 44.221 6.70261C43.8808 6.00787 43.3998 5.46511 42.7784 5.07432C42.1719 4.66904 41.484 4.46642 40.7145 4.46642C39.9453 4.46642 39.2499 4.66182 38.6285 5.05261C38.0219 5.4434 37.541 5.98616 37.1859 6.6809C36.8457 7.36115 36.6755 8.1355 36.6755 9.00392C36.6755 9.87234 36.8457 10.6611 37.1859 11.3704C37.5262 12.0651 37.9997 12.6151 38.6063 13.0204C39.2277 13.4112 39.9305 13.6066 40.7145 13.6066Z" fill="black"/>
</svg>
